<?xml version="1.0" encoding="UTF-8" standalone="no"?>
<!-- Created with Inkscape (http://www.inkscape.org/) -->

<svg
   xmlns:dc="http://purl.org/dc/elements/1.1/"
   xmlns:cc="http://creativecommons.org/ns#"
   xmlns:rdf="http://www.w3.org/1999/02/22-rdf-syntax-ns#"
   xmlns:svg="http://www.w3.org/2000/svg"
   xmlns="http://www.w3.org/2000/svg"
   xmlns:sodipodi="http://sodipodi.sourceforge.net/DTD/sodipodi-0.dtd"
   xmlns:inkscape="http://www.inkscape.org/namespaces/inkscape"
   width="352.63223mm"
   height="158.86806mm"
   viewBox="0 0 352.63223 158.86806"
   version="1.1"
   id="svg8"
   inkscape:version="0.92.3 (2405546, 2018-03-11)"
   sodipodi:docname="logo.svg">
  <defs
     id="defs2" />
  <sodipodi:namedview
     id="base"
     pagecolor="#ffffff"
     bordercolor="#666666"
     borderopacity="1.0"
     inkscape:pageopacity="0.0"
     inkscape:pageshadow="2"
     inkscape:zoom="0.35"
     inkscape:cx="2316.1207"
     inkscape:cy="-184.91095"
     inkscape:document-units="mm"
     inkscape:current-layer="layer1"
     showgrid="false"
     inkscape:window-width="1920"
     inkscape:window-height="1001"
     inkscape:window-x="-9"
     inkscape:window-y="-9"
     inkscape:window-maximized="1"
     fit-margin-top="0"
     fit-margin-left="0"
     fit-margin-right="0"
     fit-margin-bottom="0"
     inkscape:pagecheckerboard="true" />
  <metadata
     id="metadata5">
    <rdf:RDF>
      <cc:Work
         rdf:about="">
        <dc:format>image/svg+xml</dc:format>
        <dc:type
           rdf:resource="http://purl.org/dc/dcmitype/StillImage" />
        <dc:title></dc:title>
      </cc:Work>
    </rdf:RDF>
  </metadata>
  <g
     inkscape:label="Layer 1"
     inkscape:groupmode="layer"
     id="layer1"
     transform="translate(506.97361,58.959082)">
    <g
       id="g4598"
       transform="translate(-782.41071,-4.5357143)">
      <g
         id="g4586"
         transform="translate(694.72024,-32.505952)">
        <path
           inkscape:connector-curvature="0"
           id="path4563"
           d="m -305.75409,21.02546 c -0.31686,-0.06168 -0.71423,-0.27858 -0.88306,-0.482002 -2.4112,-2.905331 37.63021,-16.143812 84.33064,-27.881373 37.62007,-9.455328 65.40242,-14.579501 79.04743,-14.579501 4.08702,0 6.34059,0.308037 7.83641,1.071149 1.02936,0.52513 1.29781,0.944656 1.29781,2.028115 0,1.02989 -0.88792,2.252815 -3.18532,4.387158 -1.61277,1.498283 -3.01842,2.450719 -6.13418,4.156354 -10.47028,5.731684 -15.24516,8.760218 -18.18683,11.535241 -2.28566,2.156177 -3.04915,3.61234 -2.8363,5.409536 0.15249,1.287573 0.1504,1.291907 -0.69335,1.431853 -0.46548,0.0772 -3.1085,0.505936 -5.8734,0.952741 -6.31839,1.021048 -9.77859,1.744001 -17.59479,3.676155 l -6.21771,1.53701 -3.175,-0.358479 c -8.83958,-0.998048 -13.87841,-1.266709 -23.8125,-1.269635 -14.57735,-0.0043 -25.86595,1.058177 -49.2125,4.631831 -13.8328,2.117386 -21.02142,3.120321 -25.26316,3.524646 -4.0631,0.387298 -8.12556,0.485889 -9.44419,0.229201 z"
           style="fill:#fecd04;stroke-width:0.26458335" />
        <path
           inkscape:connector-curvature="0"
           id="path4559"
           d="m -351.94272,67.761585 c -5.29352,-1.52845 13.5625,-9.534374 46.26427,-19.642963 49.43639,-15.281511 111.96148,-30.708894 151.27804,-37.326208 15.55179,-2.617502 24.05444,-3.582239 33.24051,-3.77158 5.63533,-0.116155 7.32454,-0.06414 9.34243,0.287702 6.40382,1.116571 7.30293,3.594521 2.97091,8.187955 -3.08642,3.272692 -5.24585,4.797999 -12.12128,8.561938 -18.56859,10.165326 -25.40402,14.983791 -27.98622,19.728159 -0.77007,1.414844 -0.99531,3.264088 -0.57886,4.752055 0.24183,0.863981 0.97745,0.667618 -7.21344,1.925539 -8.73142,1.340935 -17.7878,3.197469 -27.6342,5.664933 l -8.4519,2.118011 -4.64497,-0.508661 c -12.82913,-1.404893 -21.89792,-1.912951 -34.14602,-1.912951 -20.96153,0 -38.07375,1.744964 -79.50729,8.107505 -20.66084,3.172683 -29.15804,4.141481 -35.96677,4.100714 -2.19192,-0.01312 -4.37227,-0.135591 -4.84521,-0.272148 z"
           style="fill:#d11034;stroke-width:0.26458335" />
        <path
           inkscape:connector-curvature="0"
           id="path4557"
           d="m -83.986322,135.62841 c -71.330348,-12.51186 -106.297818,-17.41525 -139.567718,-19.57119 -6.97332,-0.45188 -31.73052,-0.62011 -39.69808,-0.26976 -26.37972,1.15999 -51.35167,4.04976 -100.79567,11.66416 -26.00942,4.00547 -36.1004,5.12732 -46.30209,5.1476 -6.23315,0.0124 -6.82745,-0.0269 -7.8052,-0.51576 -1.49217,-0.74609 -1.50214,-1.40062 -0.0409,-2.68683 11.60843,-10.21815 109.60378,-40.259842 202.57947,-62.10325 49.18051,-11.554312 89.46097,-18.978393 116.681258,-21.50549 6.24707,-0.579972 20.52277,-0.661283 23.68021,-0.134882 2.75108,0.458658 5.86147,1.500482 6.9456,2.326426 2.88488,2.197894 2.02208,5.47175 -2.71227,10.291459 -4.28776,4.365064 -6.69679,6.053706 -15.50765,10.870245 -22.938508,12.53958 -31.925298,18.375027 -37.539778,24.375917 -1.55916,1.666454 -2.44927,2.906464 -3.25641,4.536496 -1.05953,2.139759 -1.11075,2.354489 -1.11075,4.657119 0,2.27397 0.06,2.53531 1.03492,4.50735 1.20729,2.44211 4.2369,5.6782 7.68482,8.20858 7.0825,5.19777 20.441558,11.82452 39.014638,19.35316 2.70473,1.09638 4.96732,2.03955 5.02796,2.09595 0.23305,0.21676 -1.14186,0.0104 -8.31233,-1.2473 z"
           style="fill:#0052a4;stroke-width:0.26458335" />
      </g>
    </g>
  </g>
</svg>
